<svg data-v-0dd9719b="" version="1.0" xmlns="http://www.w3.org/2000/svg" xmlns:xlink="http://www.w3.org/1999/xlink" width="100%" height="100%" viewBox="0 0 340.000000 250.000000" preserveAspectRatio="xMidYMid meet" color-interpolation-filters="sRGB" style="margin: auto;"> <rect data-v-0dd9719b="" x="0" y="0" width="100%" height="100%" fill="#fff" fill-opacity="1" class="background"></rect> <rect data-v-0dd9719b="" x="0" y="0" width="100%" height="100%" fill="url(#watermark)" fill-opacity="1" class="watermarklayer"></rect> <g data-v-0dd9719b="" fill="#333" class="icon-text-wrapper icon-svg-group iconsvg" transform="translate(71.7699966430664,93.78957748413086)"><g class="iconsvg-imagesvg" transform="translate(0,2.9424057006835938)"><g><rect fill="#333" fill-opacity="0" stroke-width="2" x="0" y="0" width="60" height="56.5360370122589" class="image-rect"></rect> <svg x="0" y="0" width="60" height="56.5360370122589" filtersec="colorsb6649408475" class="image-svg-svg primary" style="overflow: visible;"><svg xmlns="http://www.w3.org/2000/svg" viewBox="-0.013878063298761845 0 81.0738754272461 76.39299774169922"><title>资源 203</title><path d="M40.41 40.7H1.59C0 40.7 0 40.7 0 39.1v-2.59a.86.86 0 0 1 1-1h78.92c.66 0 1.06.33 1.07 1v3.24a.83.83 0 0 1-.93.9H40.41zM27 31.82H1.47c-1.4 0-1.45 0-1.45-1.45v-2.68c0-.68.32-1 1-1h46.42c1.58 0 1.58 0 1.58-1.57V1.6C49 .1 49.1 0 50.57 0h2.31c.77 0 1.19.27 1.12 1.13S54 3 54 4v26c0 1.84 0 1.85-1.8 1.85zM53.93 44.57h25.43c1.52 0 1.64.12 1.65 1.61v2.31c0 .77-.32 1.1-1.06 1.08H33.26c-1.43 0-1.43 0-1.43 1.42v23.77c0 1.57-.07 1.63-1.61 1.63h-2.4c-.8 0-1.19-.37-1.16-1.18V46.64c0-2.07 0-2.07 2-2.07z" fill="#2c86d8"></path><path d="M58.27 53.44h21.08c1.55 0 1.66.1 1.66 1.69v2.41c0 .81-.33 1.09-1.06 1.09H42.14c-1.43 0-1.43 0-1.43 1.43v14.79c0 1.44-.1 1.53-1.51 1.53h-2.31c-1.14 0-1.34-.21-1.34-1.37V55.15c0-1.61.09-1.71 1.75-1.71zM22.49 22.94H1.42c-1.34 0-1.4-.06-1.4-1.42v-2.86a.77.77 0 0 1 .9-.89h37.8c1.42 0 1.42 0 1.42-1.44V1.44c0-1.3.13-1.42 1.44-1.43h2.49c.83 0 1.1.32 1.09 1.1V21.62c0 1.23-.09 1.32-1.31 1.32z" fill="#2c86d8"></path><path d="M18.13 14.05H1.59C.13 14.05 0 13.94 0 12.47V9.79c0-.61.27-.91.89-.9h28.57c1.64 0 1.64 0 1.64-1.69V1.29c0-1.06.2-1.26 1.23-1.27s1.91 0 2.86 0c.73 0 1.07.26 1.07 1v11.83c0 1-.23 1.19-1.31 1.19H18.13zM62.76 62.51h16.72c1.4 0 1.52.13 1.53 1.53v2.41a.93.93 0 0 1-1.08 1.06H51.09c-1.5 0-1.5 0-1.5 1.54v6.19c0 .83-.3 1.19-1.14 1.15s-1.85 0-2.77 0c-.71 0-1.1-.31-1.1-1V63.47c0-.84.53-.92 1.18-.91h17z" fill="#2c86d8"></path><path d="M13.74 0h12.38c1.16 0 1.26.11 1.27 1.27v2.77c0 .92-.34 1.14-1.12 1.13H1.61C.13 5.17 0 5.06 0 3.61v-2C0 0 0 0 1.54 0zM67.24 71.38h12.29c1.33 0 1.47.14 1.48 1.49v2.31c0 .77-.39 1.25-1.23 1.2H55.1c-1.51 0-1.64-.13-1.64-1.63V73.1c0-1.71 0-1.72 1.67-1.72z" fill="#2c86d8"></path><path d="M69.43 22.94H59.27c-1.24 0-1.37-.15-1.37-1.39v-2.5c0-1.11.17-1.28 1.29-1.28h20.42c1.22 0 1.38.17 1.4 1.39v2.49c0 1.09-.2 1.28-1.31 1.28zM69.45 0h10.16C80.83 0 81 .19 81 1.41V3.9c0 .83-.41 1.29-1.3 1.28H59.49C58 5.17 57.9 5 57.9 3.6V1.29c0-1.1.17-1.27 1.3-1.27zM69.56 8.89h10c1.32 0 1.46.15 1.47 1.5v1.94c0 1.56-.17 1.72-1.77 1.72H59.47c-1.44 0-1.57-.14-1.57-1.59v-2.13c0-1.31.12-1.44 1.41-1.44zM69.43 31.82H59.27c-1.24 0-1.37-.14-1.37-1.39v-2.22c0-1.4.15-1.55 1.52-1.55h20c1.45 0 1.63.2 1.64 1.67v1.85c0 1.54-.11 1.64-1.61 1.64zM11.39 58.64h-10c-1.3 0-1.39-.08-1.39-1.43v-2.68c0-.89.31-1.1 1.1-1.09h20.42c1.3 0 1.42.12 1.43 1.42v2.59c0 .86-.36 1.2-1.23 1.19-3.44-.02-6.88 0-10.33 0zM11.46 49.58H1.3C.11 49.57 0 49.49 0 48.33v-2.67c0-.89.31-1.11 1.1-1.1h20.5c1.18 0 1.33.15 1.35 1.32v2.49c0 1.08-.12 1.19-1.25 1.2zM11.4 67.52H1.5C.06 67.52 0 67.47 0 66v-2.4c0-.8.31-1.1 1.09-1.09H21.71c1.12 0 1.22.11 1.23 1.22v2.5c0 1.12-.17 1.28-1.29 1.28zM11.45 76.39H1.3c-1.16 0-1.3-.12-1.3-1.26v-2.59c0-.86.34-1.17 1.2-1.17h20.5c1.15 0 1.24.1 1.25 1.28v2.49c0 1.06-.19 1.23-1.25 1.23-3.42.03-6.83.02-10.25.02z" fill="#04153e"></path></svg></svg> <!----></g></g> <g transform="translate(67,0)"><g data-gra="path-name" fill-rule="" class="tp-name iconsvg-namesvg"><g transform="scale(1)"><g><path d="M22.39-11.94L22.39-11.94Q22.39-9.5 21.49-7.29 20.58-5.07 18.77-3.4L18.77-3.4 20.98-0.77 15.11 3.02 13.73-0.77Q13.12-0.64 12.5-0.58 11.88-0.51 11.25-0.51L11.25-0.51Q9.71-0.51 8.3-0.9 6.89-1.28 5.65-1.98 4.41-2.68 3.4-3.68 2.39-4.67 1.66-5.89 0.93-7.11 0.54-8.53 0.14-9.95 0.14-11.49L0.14-11.49Q0.14-13.02 0.52-14.46 0.9-15.89 1.6-17.16 2.3-18.43 3.28-19.48 4.27-20.53 5.49-21.29 6.71-22.06 8.12-22.47 9.54-22.89 11.09-22.89L11.09-22.89Q13.58-22.89 15.66-22.14 17.74-21.38 19.23-19.97 20.72-18.56 21.56-16.53 22.39-14.5 22.39-11.94ZM14.59-11.49L14.59-11.49Q14.59-12.23 14.38-12.93 14.16-13.63 13.74-14.17 13.32-14.7 12.7-15.03 12.07-15.35 11.25-15.35L11.25-15.35Q10.45-15.35 9.81-15.07 9.17-14.79 8.71-14.29 8.25-13.79 8-13.12 7.75-12.44 7.75-11.65L7.75-11.65Q7.75-10.92 7.97-10.2 8.19-9.49 8.6-8.92 9.02-8.35 9.65-7.99 10.27-7.64 11.09-7.64L11.09-7.64Q11.88-7.64 12.53-7.95 13.18-8.27 13.64-8.8 14.09-9.33 14.34-10.03 14.59-10.72 14.59-11.49ZM23.66-22.15L32.2-22.6 30.44-0.74 23.66-0.39 23.66-22.15ZM49.75-8.54L49.75-8.54Q49.75-6.34 48.99-4.7 48.22-3.05 46.9-1.96 45.58-0.87 43.8-0.32 42.03 0.22 39.99 0.22L39.99 0.22Q39.2 0.22 38.26 0.02 37.32-0.19 36.36-0.51 35.4-0.82 34.51-1.18 33.62-1.54 32.93-1.86L32.93-1.86 33.63-8.48Q35-7.66 36.66-7.23 38.32-6.81 39.92-6.81L39.92-6.81Q40.23-6.81 40.66-6.83 41.1-6.85 41.49-6.98 41.88-7.1 42.16-7.34 42.43-7.58 42.43-8.03L42.43-8.03Q42.43-8.33 42.24-8.55 42.04-8.77 41.74-8.9 41.43-9.04 41.05-9.11 40.66-9.18 40.29-9.21 39.92-9.25 39.6-9.25 39.28-9.25 39.09-9.25L39.09-9.25Q37.71-9.25 36.58-9.73 35.45-10.21 34.64-11.07 33.82-11.93 33.37-13.11 32.93-14.29 32.93-15.67L32.93-15.67Q32.93-17.56 33.69-19.06 34.45-20.56 35.73-21.62 37-22.67 38.66-23.23 40.31-23.79 42.08-23.79L42.08-23.79Q42.86-23.79 43.7-23.73 44.53-23.68 45.36-23.53 46.19-23.39 46.97-23.16 47.76-22.94 48.47-22.6L48.47-22.6 47.86-16.09Q46.76-16.45 45.57-16.7 44.37-16.95 43.23-16.95L43.23-16.95Q43.02-16.95 42.69-16.94 42.36-16.94 42-16.9 41.64-16.86 41.27-16.78 40.9-16.7 40.61-16.56 40.33-16.42 40.15-16.2 39.97-15.97 39.99-15.67L39.99-15.67Q40-15.31 40.25-15.1 40.5-14.88 40.9-14.76 41.29-14.64 41.76-14.59 42.24-14.54 42.7-14.54 43.17-14.53 43.57-14.54 43.97-14.54 44.23-14.51L44.23-14.51Q45.51-14.43 46.54-13.97 47.57-13.5 48.28-12.73 48.99-11.96 49.37-10.89 49.75-9.82 49.75-8.54ZM69.3-22.89L69.82 0 61.79 0.39 61.73-7.03 58.03-7.03 57.81 0 50.62 0 51.23-22.57 58.87-22.22 58.39-10.69 61.95-10.69 61.98-23.08 69.3-22.89ZM71.74-23.15L86.54-23.15Q86.45-21.64 86.37-20.16 86.29-18.69 86.16-17.18L86.16-17.18 79.35-16.82 79.19-14.8 83.98-14.8 83.62-9.82 78.81-9.66 78.65-7.32 82.63-7.32 85.45-7.32Q85.36-5.55 85.25-3.81 85.15-2.07 85.07-0.32L85.07-0.32 71.23 0 71.74-23.15ZM101.34-22.76L108.92-23.02 107.77-1.25 99.35-0.48 94.86-12.14 94.15-0.26 86.93-0.26 87.51-23.02 95.53-23.41 101.09-11.85 101.34-22.76ZM129.41-14.06L129.6-3.27Q128.84-2.33 127.74-1.62 126.63-0.92 125.36-0.45 124.09 0.02 122.76 0.25 121.43 0.48 120.22 0.48L120.22 0.48Q117.9 0.48 115.94-0.35 113.98-1.19 112.56-2.66 111.14-4.13 110.33-6.12 109.53-8.11 109.53-10.4L109.53-10.4Q109.53-12.15 109.93-13.83 110.33-15.51 111.08-16.99 111.83-18.48 112.9-19.72 113.98-20.97 115.34-21.86 116.71-22.76 118.33-23.26 119.95-23.76 121.8-23.76L121.8-23.76Q122.49-23.76 123.27-23.7 124.06-23.65 124.84-23.51 125.62-23.37 126.36-23.13 127.09-22.89 127.7-22.54L127.7-22.54 127.25-16.41Q126.36-16.74 125.4-16.86 124.45-16.98 123.53-16.98L123.53-16.98Q122.25-16.98 121.13-16.59 120.01-16.2 119.19-15.46 118.36-14.72 117.88-13.66 117.4-12.6 117.4-11.27L117.4-11.27Q117.4-10.43 117.62-9.66 117.85-8.88 118.31-8.28 118.76-7.67 119.44-7.3 120.13-6.94 121.03-6.94L121.03-6.94Q121.64-6.94 122.29-7.1 122.94-7.26 123.4-7.64L123.4-7.64 123.47-8.89 119.61-8.96 119.81-13.77Q122.2-13.85 124.59-13.91 126.98-13.97 129.41-14.06L129.41-14.06Z" transform="translate(-0.14000000059604645, 23.790000915527344)"></path></g> <!----> <!----> <!----> <!----> <!----> <!----> <g data-gra="path-name-1" fill="#333" transform="translate(0,29.81000328063965)"><g transform="scale(0.99393)"><path d="M0.4-31.96L24.8-32 24.57-22.51 17.9-22.24 16.2-1.03 6.76-0.54 6.8-21.75 0.13-21.39 0.4-31.96ZM52.26-21.57L52.26-21.57Q52.26-19.83 51.95-18.41 51.65-16.99 51-15.8 50.35-14.61 49.32-13.61 48.29-12.6 46.84-11.68L46.84-11.68 52.17-2.19 42.1-0.22 38.65-9.76 35.87-9.67 35.47-0.36 25.85-0.36Q25.96-5.46 26.06-10.52 26.16-15.58 26.3-20.68L26.3-20.68Q26.34-23.25 26.38-25.78 26.43-28.31 26.56-30.88L26.56-30.88Q28.13-31.46 29.65-31.85 31.17-32.23 32.71-32.44 34.24-32.65 35.82-32.73 37.4-32.81 39.05-32.81L39.05-32.81Q41.6-32.81 43.99-32.1 46.37-31.4 48.2-29.99 50.04-28.58 51.15-26.47 52.26-24.37 52.26-21.57ZM42.23-20.86L42.23-20.86Q42.23-21.8 41.97-22.58 41.71-23.36 41.21-23.93 40.71-24.51 39.96-24.83 39.21-25.15 38.2-25.15L38.2-25.15Q37.75-25.15 37.33-25.1 36.9-25.04 36.5-24.93L36.5-24.93 36.14-16.61 36.68-16.61Q37.64-16.61 38.64-16.85 39.63-17.1 40.43-17.61 41.22-18.13 41.73-18.93 42.23-19.74 42.23-20.86ZM73.29-32.05L82.02-1.92 70.92-0.49 69.58-5.55 64.47-5.55 63.36-0.49 51.94-1.61 60.85-31.42 73.29-32.05ZM65.41-12.4L68.77-12.4 67.07-20.19 65.41-12.4ZM107.84-17.77L107.84-17.77Q107.84-14.64 107.04-12.12 106.23-9.6 104.79-7.64 103.35-5.68 101.35-4.27 99.36-2.86 96.99-1.96 94.62-1.05 91.94-0.62 89.27-0.18 86.45-0.18L86.45-0.18Q85.4-0.18 84.39-0.23 83.38-0.29 82.33-0.4L82.33-0.4 82.96-30.44Q85.42-31.22 88.03-31.54 90.64-31.87 93.21-31.87L93.21-31.87Q96.41-31.87 99.09-30.91 101.78-29.94 103.73-28.13 105.67-26.32 106.76-23.7 107.84-21.08 107.84-17.77ZM98.67-16.02L98.67-16.34Q98.69-17.55 98.41-18.66 98.13-19.78 97.49-20.64 96.86-21.51 95.87-22.03 94.89-22.56 93.52-22.6L93.52-22.6 92.63-8.73Q93.97-8.93 95.07-9.61 96.16-10.29 96.96-11.29 97.75-12.29 98.19-13.51 98.62-14.73 98.67-16.02L98.67-16.02ZM109.75-32.27L130.38-32.27Q130.25-30.17 130.13-28.11 130.02-26.05 129.84-23.95L129.84-23.95 120.35-23.45 120.13-20.63 126.8-20.63 126.31-13.7 119.59-13.47 119.37-10.2 124.92-10.2 128.86-10.2Q128.72-7.74 128.58-5.32 128.43-2.89 128.32-0.45L128.32-0.45 109.03 0 109.75-32.27Z" transform="translate(-0.12999999523162842, 32.810001373291016)"></path></g></g></g></g> <!----></g></g><defs v-gra="od"></defs></svg>